<svg width="16" height="16" viewBox="0 0 16 16" fill="none" xmlns="http://www.w3.org/2000/svg">
<g id="iconmonstr-gavel-1 1" clip-path="url(#clip0_318_1083)">
<path id="Vector" fill-rule="evenodd" clip-rule="evenodd" d="M0 14.6667H8V16H0V14.6667ZM7.33333 14H0.666667C0.666667 13.2633 1.26333 12.6667 2 12.6667H6C6.73667 12.6667 7.33333 13.2633 7.33333 14ZM11.5793 5.44067L10.082 6.90533C10.082 6.90533 14.276 10.5993 15.53 11.668C15.8467 11.938 16 12.2873 16 12.632C16 13.3087 15.408 13.8893 14.7 13.8447C14.3533 13.8233 14.046 13.6427 13.8193 13.38C12.74 12.13 9.106 7.88067 9.106 7.88067L7.60933 9.34467L3.70467 5.44067L7.676 1.536L11.5793 5.44067ZM3.38 6.058C3.25 5.92933 3.07467 5.85667 2.89133 5.85667C2.70867 5.85667 2.53333 5.92933 2.40333 6.058C2.27467 6.188 2.20133 6.36333 2.20133 6.54667C2.20133 6.72933 2.27467 6.90467 2.40333 7.03467L6.07867 10.7087C6.208 10.8387 6.38333 10.9113 6.56667 10.9113C6.75 10.9113 6.92533 10.8387 7.05467 10.7087C7.184 10.58 7.25667 10.404 7.25667 10.2207C7.25667 10.038 7.184 9.86267 7.05467 9.73333L3.38 6.058ZM9.236 0.202C9.106 0.0726667 8.93067 0 8.748 0C8.364 0 8.058 0.311333 8.058 0.69C8.058 0.873333 8.13 1.04933 8.26 1.178L11.9353 4.85333C12.0647 4.982 12.2393 5.05533 12.4227 5.05533C12.804 5.05533 13.1133 4.746 13.1133 4.36533C13.1133 4.182 13.0407 4.006 12.9107 3.87733L9.236 0.202Z" fill="current"/>
</g>
<defs>
<clipPath id="clip0_318_1083">
<rect width="16" height="16" fill="white"/>
</clipPath>
</defs>
</svg>
