<svg width="14" height="14" viewBox="0 0 14 14" fill="none" xmlns="http://www.w3.org/2000/svg">
<g id="cancel">
<mask id="mask0_423_236" style="mask-type:alpha" maskUnits="userSpaceOnUse" x="0" y="0" width="14" height="14">
<rect id="Bounding box" width="14" height="14" fill="#D9D9D9"/>
</mask>
<g mask="url(#mask0_423_236)">
<path id="cancel_2" d="M4.89984 9.9165L6.99984 7.8165L9.09984 9.9165L9.9165 9.09984L7.8165 6.99984L9.9165 4.89984L9.09984 4.08317L6.99984 6.18317L4.89984 4.08317L4.08317 4.89984L6.18317 6.99984L4.08317 9.09984L4.89984 9.9165ZM6.99984 12.8332C6.19289 12.8332 5.43456 12.68 4.72484 12.3738C4.01512 12.0675 3.39775 11.6519 2.87275 11.1269C2.34775 10.6019 1.93213 9.98456 1.62588 9.27484C1.31963 8.56512 1.1665 7.80678 1.1665 6.99984C1.1665 6.19289 1.31963 5.43456 1.62588 4.72484C1.93213 4.01512 2.34775 3.39775 2.87275 2.87275C3.39775 2.34775 4.01512 1.93213 4.72484 1.62588C5.43456 1.31963 6.19289 1.1665 6.99984 1.1665C7.80678 1.1665 8.56512 1.31963 9.27484 1.62588C9.98456 1.93213 10.6019 2.34775 11.1269 2.87275C11.6519 3.39775 12.0675 4.01512 12.3738 4.72484C12.68 5.43456 12.8332 6.19289 12.8332 6.99984C12.8332 7.80678 12.68 8.56512 12.3738 9.27484C12.0675 9.98456 11.6519 10.6019 11.1269 11.1269C10.6019 11.6519 9.98456 12.0675 9.27484 12.3738C8.56512 12.68 7.80678 12.8332 6.99984 12.8332ZM6.99984 11.6665C8.30262 11.6665 9.40609 11.2144 10.3103 10.3103C11.2144 9.40609 11.6665 8.30262 11.6665 6.99984C11.6665 5.69706 11.2144 4.59359 10.3103 3.68942C9.40609 2.78525 8.30262 2.33317 6.99984 2.33317C5.69706 2.33317 4.59359 2.78525 3.68942 3.68942C2.78525 4.59359 2.33317 5.69706 2.33317 6.99984C2.33317 8.30262 2.78525 9.40609 3.68942 10.3103C4.59359 11.2144 5.69706 11.6665 6.99984 11.6665Z" fill="current"/>
</g>
</g>
</svg>
