<svg width="18" height="18" viewBox="0 0 18 18" fill="none" xmlns="http://www.w3.org/2000/svg">
<path d="M9 1.5C13.1355 1.5 16.5 4.8645 16.5 9C16.5 13.1355 13.1355 16.5 9 16.5C4.8645 16.5 1.5 13.1355 1.5 9C1.5 4.8645 4.8645 1.5 9 1.5ZM9 0C4.02975 0 0 4.02975 0 9C0 13.9703 4.02975 18 9 18C13.9703 18 18 13.9703 18 9C18 4.02975 13.9703 0 9 0ZM13.386 9.34425C13.5375 9.37275 13.5375 9.594 13.3868 9.62325C11.9565 9.894 8.853 10.4565 8.4765 10.4565C7.93725 10.4565 7.50075 10.02 7.50075 9.48075C7.50075 9.09675 8.07825 5.3955 8.3445 3.897C8.37 3.753 8.5785 3.76125 8.60175 3.9075L9.3405 8.586L13.386 9.34425Z" fill="black"/>
</svg>
