<svg width="42" height="42" viewBox="0 0 42 42" fill="none" xmlns="http://www.w3.org/2000/svg">
<g id="info_black_24dp 1" clip-path="url(#clip0_318_1091)">
<path id="Vector" d="M19.25 12.25H22.75V15.75H19.25V12.25ZM19.25 19.25H22.75V29.75H19.25V19.25ZM21 3.5C11.34 3.5 3.5 11.34 3.5 21C3.5 30.66 11.34 38.5 21 38.5C30.66 38.5 38.5 30.66 38.5 21C38.5 11.34 30.66 3.5 21 3.5ZM21 35C13.2825 35 7 28.7175 7 21C7 13.2825 13.2825 7 21 7C28.7175 7 35 13.2825 35 21C35 28.7175 28.7175 35 21 35Z" fill="current"/>
</g>
<defs>
<clipPath id="clip0_318_1091">
<rect width="42" height="42" fill="white"/>
</clipPath>
</defs>
</svg>
