<svg width="16" height="16" viewBox="0 0 16 16" fill="none" xmlns="http://www.w3.org/2000/svg">
<g id="iconmonstr-info-7 1" clip-path="url(#clip0_318_1085)">
<path id="Vector" d="M8 0C3.582 0 0 3.582 0 8C0 12.418 3.582 16 8 16C12.418 16 16 12.418 16 8C16 3.582 12.418 0 8 0ZM6.64467 10.6733C7.02067 9.48067 7.73267 8.052 7.85867 7.69067C8.04067 7.166 7.718 6.93333 6.69867 7.83L6.472 7.40333C7.63467 6.13867 10.0287 5.85267 9.214 7.812C8.70533 9.03533 8.34133 9.86133 8.13333 10.4987C7.83 11.4273 8.596 11.0507 9.346 10.358C9.448 10.5247 9.48133 10.5787 9.58333 10.7707C7.918 12.356 6.06933 12.496 6.64467 10.6733ZM9.806 5.22733C9.45133 5.52933 8.926 5.52267 8.632 5.21267C8.338 4.90267 8.38733 4.40733 8.74133 4.10533C9.096 3.80333 9.62133 3.81067 9.91533 4.12C10.208 4.43067 10.16 4.926 9.806 5.22733Z" fill="current"/>
</g>
<defs>
<clipPath id="clip0_318_1085">
<rect width="16" height="16" fill="white"/>
</clipPath>
</defs>
</svg>
