<svg width="71" height="93" viewBox="0 0 71 93" fill="none" xmlns="http://www.w3.org/2000/svg">
<path id="Vector" d="M6.65625 93C4.82578 93 3.25879 92.3496 1.95527 91.0487C0.651758 89.7478 0 88.1839 0 86.3571V38.3071C0 36.4804 0.651758 34.9165 1.95527 33.6156C3.25879 32.3147 4.82578 31.6643 6.65625 31.6643H14.4219V21.0357C14.4219 15.2158 16.4781 10.2549 20.5907 6.15295C24.7032 2.05098 29.6769 0 35.5118 0C41.3466 0 46.3164 2.05098 50.4211 6.15295C54.5258 10.2549 56.5781 15.2158 56.5781 21.0357V31.6643H64.3438C66.1742 31.6643 67.7412 32.3147 69.0447 33.6156C70.3482 34.9165 71 36.4804 71 38.3071V86.3571C71 88.1839 70.3482 89.7478 69.0447 91.0487C67.7412 92.3496 66.1742 93 64.3438 93H6.65625ZM6.65625 86.3571H64.3438V38.3071H6.65625V86.3571ZM35.5186 70.8571C37.8729 70.8571 39.882 70.0441 41.5461 68.418C43.2102 66.7919 44.0422 64.8371 44.0422 62.5536C44.0422 60.3393 43.2039 58.328 41.5275 56.5196C39.851 54.7113 37.8356 53.8071 35.4814 53.8071C33.1271 53.8071 31.118 54.7113 29.4539 56.5196C27.7898 58.328 26.9578 60.3577 26.9578 62.6089C26.9578 64.8601 27.7961 66.7976 29.4725 68.4214C31.149 70.0452 33.1644 70.8571 35.5186 70.8571ZM21.0781 31.6643H49.9219V21.0357C49.9219 17.0377 48.521 13.6394 45.7193 10.8408C42.9176 8.04217 39.5155 6.64286 35.5131 6.64286C31.5106 6.64286 28.1042 8.04217 25.2938 10.8408C22.4833 13.6394 21.0781 17.0377 21.0781 21.0357V31.6643Z" fill="#5940C1"/>
</svg>
