<svg width="13" height="13" viewBox="0 0 13 13" fill="none" xmlns="http://www.w3.org/2000/svg">
<path id="Vector" d="M7.58333 4.875V5.95833H5.41667V4.875C5.41667 4.277 5.90254 3.79167 6.5 3.79167C7.09746 3.79167 7.58333 4.277 7.58333 4.875ZM13 6.5C13 10.0896 10.0896 13 6.5 13C2.91038 13 0 10.0896 0 6.5C0 2.91038 2.91038 0 6.5 0C10.0896 0 13 2.91038 13 6.5ZM8.66667 5.95833H8.125V4.875C8.125 3.978 7.39754 3.25 6.5 3.25C5.60246 3.25 4.875 3.978 4.875 4.875V5.95833H4.33333V9.20833H8.66667V5.95833Z" fill="#180B2D"/>
</svg>
