<svg width="152" height="35" viewBox="0 0 152 35" fill="none" xmlns="http://www.w3.org/2000/svg">
<path d="M12.4705 24.9587H0V34.3163H12.4705C25.1768 34.3163 35.6961 24.772 37.2361 12.4743H27.76C26.3107 19.588 20.0068 24.9574 12.4717 24.9574L12.4705 24.9587Z" fill="white"/>
<path d="M24.9587 0C12.2574 0 1.74065 9.53796 0.195557 21.8281H9.67297C11.1272 14.7206 17.4287 9.35759 24.9587 9.35759H37.4292V0H24.9587Z" fill="white"/>
<path d="M49.6359 5.7654V8.17196H54.1551V10.9166H49.6359V15.4976H46.8547V3.02081H54.2422V5.7654H49.6359Z" fill="white"/>
<path d="M63.8015 13.5375H59.2823L58.6743 15.4976H55.6321L59.7691 3.02081H63.3147L67.4517 15.4976H64.4107L63.8015 13.5375ZM62.9678 10.8636L61.5425 6.28254L60.1173 10.8636H62.9678Z" fill="white"/>
<path d="M72.579 3.02081V15.4976H69.7979V3.02081H72.579Z" fill="white"/>
<path d="M80.0711 11.3984H78.7505V15.4976H75.9694V3.02081H80.8367C83.1487 3.02081 85.0078 4.9279 85.0078 7.29914C85.0078 8.83162 84.1035 10.2228 82.7652 10.9178L85.3547 15.4989H82.3654L80.0711 11.3996V11.3984ZM78.7505 8.90352H80.8367C81.6011 8.90352 82.2267 8.20854 82.2267 7.29914C82.2267 6.38975 81.6011 5.69477 80.8367 5.69477H78.7505V8.90352Z" fill="white"/>
<path d="M56.3132 26.1316C56.3132 28.4107 54.3292 30.2447 51.77 30.2447H49.8226V34.0147H46.8547V22.0172H51.77C54.3292 22.0172 56.3132 23.8511 56.3132 26.1303V26.1316ZM53.3454 26.1316C53.3454 25.2575 52.6782 24.589 51.7688 24.589H49.8213V27.6741H51.7688C52.6769 27.6741 53.3454 27.0057 53.3454 26.1316Z" fill="white"/>
<path d="M63.7044 30.0744H62.2955V34.016H59.3276V22.0185H64.5204C66.9875 22.0185 68.9715 23.8524 68.9715 26.1316C68.9715 27.6048 68.0066 28.9418 66.5789 29.6103L69.3424 34.0147H66.1525L63.7044 30.0732V30.0744ZM62.2955 27.6754H64.5204C65.3365 27.6754 66.0037 27.0069 66.0037 26.1329C66.0037 25.2588 65.3365 24.5903 64.5204 24.5903H62.2955V27.6754Z" fill="white"/>
<path d="M71.3833 28.0173C71.3833 24.4869 74.4066 21.7789 78.1338 21.7789C81.8609 21.7789 84.8843 24.4869 84.8843 28.0173C84.8843 31.5476 81.8609 34.2557 78.1338 34.2557C74.4066 34.2557 71.3833 31.5476 71.3833 28.0173ZM81.9177 28.0173C81.9177 25.8756 80.249 24.4528 78.135 24.4528C76.0211 24.4528 74.3524 25.8756 74.3524 28.0173C74.3524 30.159 76.0211 31.5817 78.135 31.5817C80.249 31.5817 81.9177 30.159 81.9177 28.0173Z" fill="white"/>
<path d="M95.9193 24.6584H92.5806V34.016H89.614V24.6584H86.2754V22.0185H95.9193V24.6584Z" fill="white"/>
<path d="M97.3105 28.0173C97.3105 24.4869 100.334 21.7789 104.061 21.7789C107.788 21.7789 110.812 24.4869 110.812 28.0173C110.812 31.5476 107.788 34.2557 104.061 34.2557C100.334 34.2557 97.3105 31.5476 97.3105 28.0173ZM107.845 28.0173C107.845 25.8756 106.176 24.4528 104.062 24.4528C101.948 24.4528 100.28 25.8756 100.28 28.0173C100.28 30.159 101.948 31.5817 104.062 31.5817C106.176 31.5817 107.845 30.159 107.845 28.0173Z" fill="white"/>
<path d="M113.315 28.0173C113.315 24.4869 116.153 21.7789 120.066 21.7789C122.421 21.7789 124.498 22.8585 125.629 24.555L123.07 25.926C122.495 25.0002 121.382 24.4528 120.066 24.4528C117.766 24.4528 116.283 25.8756 116.283 28.0173C116.283 30.159 117.766 31.5817 120.066 31.5817C121.382 31.5817 122.514 31.033 123.07 30.1085L125.629 31.4795C124.517 33.176 122.439 34.2569 120.066 34.2569C116.152 34.2569 113.315 31.5489 113.315 28.0185V28.0173Z" fill="white"/>
<path d="M127.67 28.0173C127.67 24.4869 130.693 21.7789 134.421 21.7789C138.148 21.7789 141.171 24.4869 141.171 28.0173C141.171 31.5476 138.148 34.2557 134.421 34.2557C130.693 34.2557 127.67 31.5476 127.67 28.0173ZM138.204 28.0173C138.204 25.8756 136.536 24.4528 134.422 24.4528C132.308 24.4528 130.639 25.8756 130.639 28.0173C130.639 30.159 132.308 31.5817 134.422 31.5817C136.536 31.5817 138.204 30.159 138.204 28.0173Z" fill="white"/>
<path d="M151.356 31.3761V34.016H143.753V22.0185H146.721V31.3761H151.357H151.356Z" fill="white"/>
</svg>
