<svg width="150" height="35" viewBox="0 0 150 35" fill="none" xmlns="http://www.w3.org/2000/svg">
<path d="M12.365 34.025H0V24.7462H12.365C20.895 24.7462 27.835 17.8062 27.835 9.27625H37.1138C37.1138 22.9225 26.0112 34.0238 12.3663 34.0238L12.365 34.025Z" fill="#0DD36B"/>
<path d="M9.27875 24.7475H0C0 11.1025 11.1025 0 24.7488 0H37.1125V9.27875H24.7488C16.2188 9.27875 9.27875 16.2188 9.27875 24.7488V24.7475Z" fill="#FFC82E"/>
<path d="M49.1425 5.77374V8.15999H53.6225V10.8812H49.1425V15.4225H46.385V3.05249H53.71V5.77374H49.1425Z" fill="white"/>
<path d="M63.1875 13.48H58.7075L58.1038 15.4237H55.0875L59.1888 3.05249H62.705L66.8063 15.4237H63.79L63.1863 13.48H63.1875ZM62.36 10.8287L60.9463 6.28624L59.5325 10.8287H62.3588H62.36Z" fill="white"/>
<path d="M71.8913 3.05249V15.4237H69.1338V3.05249H71.8913Z" fill="white"/>
<path d="M79.3187 11.3587H78.0087V15.4237H75.2512V3.05249H80.0762C82.3687 3.05249 84.2125 4.94374 84.2125 7.29374C84.2125 8.81374 83.3162 10.1925 81.9887 10.8812L84.5562 15.4225H81.5925L79.3175 11.3575L79.3187 11.3587ZM78.0087 8.88499H80.0762C80.835 8.88499 81.455 8.19624 81.455 7.29374C81.455 6.39124 80.835 5.70374 80.0762 5.70374H78.0087V8.88499Z" fill="white"/>
<path d="M55.7625 25.9675C55.7625 28.2275 53.795 30.0462 51.2575 30.0462H49.3263V33.785H46.3838V21.89H51.2563C53.7938 21.89 55.7613 23.7087 55.7613 25.9687L55.7625 25.9675ZM52.82 25.9675C52.82 25.1012 52.1588 24.4387 51.2575 24.4387H49.3263V27.4975H51.2575C52.1588 27.4975 52.82 26.835 52.82 25.9675Z" fill="white"/>
<path d="M63.0926 29.8762H61.6951V33.785H58.7526V21.89H63.9013C66.3476 21.89 68.3151 23.7087 68.3151 25.9687C68.3151 27.43 67.3588 28.7562 65.9426 29.4187L68.6826 33.7862H65.5201L63.0926 29.8775V29.8762ZM61.6951 27.4975H63.9013C64.7101 27.4975 65.3726 26.835 65.3726 25.9675C65.3726 25.1 64.7113 24.4387 63.9013 24.4387H61.6951V27.4975Z" fill="white"/>
<path d="M70.705 27.8375C70.705 24.3375 73.7025 21.6525 77.3987 21.6525C81.095 21.6525 84.0925 24.3375 84.0925 27.8375C84.0925 31.3375 81.095 34.0237 77.3987 34.0237C73.7025 34.0237 70.705 31.3387 70.705 27.8375ZM81.15 27.8375C81.15 25.7137 79.495 24.3025 77.3987 24.3025C75.3025 24.3025 73.6475 25.7125 73.6475 27.8375C73.6475 29.9625 75.3025 31.3725 77.3987 31.3725C79.495 31.3725 81.15 29.9625 81.15 27.8375Z" fill="white"/>
<path d="M95.0325 24.5062H91.7225V33.785H88.78V24.5062H85.47V21.8887H95.0325V24.5062Z" fill="white"/>
<path d="M96.4125 27.8375C96.4125 24.3375 99.41 21.6525 103.106 21.6525C106.802 21.6525 109.8 24.3375 109.8 27.8375C109.8 31.3375 106.802 34.0237 103.106 34.0237C99.41 34.0237 96.4125 31.3387 96.4125 27.8375ZM106.857 27.8375C106.857 25.7137 105.202 24.3025 103.106 24.3025C101.01 24.3025 99.355 25.7125 99.355 27.8375C99.355 29.9625 101.01 31.3725 103.106 31.3725C105.202 31.3725 106.857 29.9625 106.857 27.8375Z" fill="white"/>
<path d="M112.281 27.8375C112.281 24.3375 115.095 21.6525 118.975 21.6525C121.31 21.6525 123.37 22.7225 124.491 24.405L121.954 25.7637C121.384 24.8462 120.28 24.3025 118.975 24.3025C116.695 24.3025 115.224 25.7125 115.224 27.8375C115.224 29.9625 116.695 31.3725 118.975 31.3725C120.28 31.3725 121.403 30.8287 121.954 29.9112L124.491 31.27C123.388 32.9525 121.329 34.0237 118.975 34.0237C115.095 34.0237 112.281 31.3387 112.281 27.8375Z" fill="white"/>
<path d="M126.515 27.8375C126.515 24.3375 129.513 21.6525 133.209 21.6525C136.905 21.6525 139.903 24.3375 139.903 27.8375C139.903 31.3375 136.905 34.0237 133.209 34.0237C129.513 34.0237 126.515 31.3387 126.515 27.8375ZM136.96 27.8375C136.96 25.7137 135.305 24.3025 133.209 24.3025C131.113 24.3025 129.458 25.7125 129.458 27.8375C129.458 29.9625 131.113 31.3725 133.209 31.3725C135.305 31.3725 136.96 29.9625 136.96 27.8375Z" fill="white"/>
<path d="M150 31.1675V33.785H142.461V21.89H145.404V31.1687H150V31.1675Z" fill="white"/>
</svg>
