<svg width="14" height="14" viewBox="0 0 14 14" fill="none" xmlns="http://www.w3.org/2000/svg">
<g id="play_circle">
<mask id="mask0_423_3970" style="mask-type:alpha" maskUnits="userSpaceOnUse" x="0" y="0" width="14" height="14">
<rect id="Bounding box" width="14" height="14" fill="#D9D9D9"/>
</mask>
<g mask="url(#mask0_423_3970)">
<path id="play_circle_2" d="M5.54199 9.62484L9.62533 6.99984L5.54199 4.37484V9.62484ZM7.00033 12.8332C6.19338 12.8332 5.43505 12.68 4.72533 12.3738C4.0156 12.0675 3.39824 11.6519 2.87324 11.1269C2.34824 10.6019 1.93262 9.98456 1.62637 9.27484C1.32012 8.56512 1.16699 7.80678 1.16699 6.99984C1.16699 6.19289 1.32012 5.43456 1.62637 4.72484C1.93262 4.01512 2.34824 3.39775 2.87324 2.87275C3.39824 2.34775 4.0156 1.93213 4.72533 1.62588C5.43505 1.31963 6.19338 1.1665 7.00033 1.1665C7.80727 1.1665 8.5656 1.31963 9.27533 1.62588C9.98505 1.93213 10.6024 2.34775 11.1274 2.87275C11.6524 3.39775 12.068 4.01512 12.3743 4.72484C12.6805 5.43456 12.8337 6.19289 12.8337 6.99984C12.8337 7.80678 12.6805 8.56512 12.3743 9.27484C12.068 9.98456 11.6524 10.6019 11.1274 11.1269C10.6024 11.6519 9.98505 12.0675 9.27533 12.3738C8.5656 12.68 7.80727 12.8332 7.00033 12.8332ZM7.00033 11.6665C8.3031 11.6665 9.40658 11.2144 10.3107 10.3103C11.2149 9.40609 11.667 8.30262 11.667 6.99984C11.667 5.69706 11.2149 4.59359 10.3107 3.68942C9.40658 2.78525 8.3031 2.33317 7.00033 2.33317C5.69755 2.33317 4.59408 2.78525 3.68991 3.68942C2.78574 4.59359 2.33366 5.69706 2.33366 6.99984C2.33366 8.30262 2.78574 9.40609 3.68991 10.3103C4.59408 11.2144 5.69755 11.6665 7.00033 11.6665Z" fill="current"/>
</g>
</g>
</svg>
