<svg width="24" height="24" viewBox="0 0 24 24" fill="none" xmlns="http://www.w3.org/2000/svg">
<g id="iconmonstr-magnifier-lined 1">
<path id="Vector" d="M15.97 17.031C14.491 18.269 12.586 19.016 10.509 19.016C5.812 19.016 2 15.204 2 10.508C2 5.812 5.812 2 10.509 2C15.204 2 19.017 5.812 19.017 10.508C19.017 12.586 18.27 14.492 17.032 15.969L21.781 20.719C21.927 20.865 22 21.057 22 21.25C22 21.837 21.463 22 21.25 22C21.058 22 20.866 21.927 20.719 21.78L15.97 17.031ZM10.509 3.501C6.641 3.501 3.502 6.641 3.502 10.508C3.502 14.375 6.641 17.515 10.509 17.515C14.375 17.515 17.516 14.375 17.516 10.508C17.516 6.641 14.375 3.501 10.509 3.501Z" fill="current"/>
</g>
</svg>
