<svg width="15" height="16" viewBox="0 0 15 16" fill="none" xmlns="http://www.w3.org/2000/svg">
<path d="M12 16C11.3333 16 10.7667 15.7667 10.3 15.3C9.83333 14.8333 9.6 14.2667 9.6 13.6C9.6 13.5067 9.60667 13.41 9.62 13.31C9.63333 13.21 9.65333 13.12 9.68 13.04L4.04 9.76C3.81333 9.96 3.56 10.1167 3.28 10.23C3 10.3433 2.70667 10.4 2.4 10.4C1.73333 10.4 1.16667 10.1667 0.7 9.7C0.233333 9.23333 0 8.66667 0 8C0 7.33333 0.233333 6.76667 0.7 6.3C1.16667 5.83333 1.73333 5.6 2.4 5.6C2.70667 5.6 3 5.65667 3.28 5.77C3.56 5.88333 3.81333 6.04 4.04 6.24L9.68 2.96C9.65333 2.88 9.63333 2.79 9.62 2.69C9.60667 2.59 9.6 2.49333 9.6 2.4C9.6 1.73333 9.83333 1.16667 10.3 0.7C10.7667 0.233333 11.3333 0 12 0C12.6667 0 13.2333 0.233333 13.7 0.7C14.1667 1.16667 14.4 1.73333 14.4 2.4C14.4 3.06667 14.1667 3.63333 13.7 4.1C13.2333 4.56667 12.6667 4.8 12 4.8C11.6933 4.8 11.4 4.74333 11.12 4.63C10.84 4.51667 10.5867 4.36 10.36 4.16L4.72 7.44C4.74667 7.52 4.76667 7.61 4.78 7.71C4.79333 7.81 4.8 7.90667 4.8 8C4.8 8.09333 4.79333 8.19 4.78 8.29C4.76667 8.39 4.74667 8.48 4.72 8.56L10.36 11.84C10.5867 11.64 10.84 11.4833 11.12 11.37C11.4 11.2567 11.6933 11.2 12 11.2C12.6667 11.2 13.2333 11.4333 13.7 11.9C14.1667 12.3667 14.4 12.9333 14.4 13.6C14.4 14.2667 14.1667 14.8333 13.7 15.3C13.2333 15.7667 12.6667 16 12 16ZM12 3.2C12.2267 3.2 12.4167 3.12333 12.57 2.97C12.7233 2.81667 12.8 2.62667 12.8 2.4C12.8 2.17333 12.7233 1.98333 12.57 1.83C12.4167 1.67667 12.2267 1.6 12 1.6C11.7733 1.6 11.5833 1.67667 11.43 1.83C11.2767 1.98333 11.2 2.17333 11.2 2.4C11.2 2.62667 11.2767 2.81667 11.43 2.97C11.5833 3.12333 11.7733 3.2 12 3.2ZM2.4 8.8C2.62667 8.8 2.81667 8.72333 2.97 8.57C3.12333 8.41667 3.2 8.22667 3.2 8C3.2 7.77333 3.12333 7.58333 2.97 7.43C2.81667 7.27667 2.62667 7.2 2.4 7.2C2.17333 7.2 1.98333 7.27667 1.83 7.43C1.67667 7.58333 1.6 7.77333 1.6 8C1.6 8.22667 1.67667 8.41667 1.83 8.57C1.98333 8.72333 2.17333 8.8 2.4 8.8ZM12 14.4C12.2267 14.4 12.4167 14.3233 12.57 14.17C12.7233 14.0167 12.8 13.8267 12.8 13.6C12.8 13.3733 12.7233 13.1833 12.57 13.03C12.4167 12.8767 12.2267 12.8 12 12.8C11.7733 12.8 11.5833 12.8767 11.43 13.03C11.2767 13.1833 11.2 13.3733 11.2 13.6C11.2 13.8267 11.2767 14.0167 11.43 14.17C11.5833 14.3233 11.7733 14.4 12 14.4Z" fill="#5940C1"/>
</svg>
