<svg width="35" height="35" viewBox="0 0 35 35" fill="none" xmlns="http://www.w3.org/2000/svg">
<path id="Vector" d="M17.4782 35C15.0021 35 12.7008 34.5552 10.5743 33.6656C8.44777 32.776 6.598 31.5437 5.02497 29.9688C3.45194 28.3937 2.22118 26.5417 1.33271 24.4125C0.444236 22.2833 0 19.9792 0 17.5C0 15.05 0.444236 12.7604 1.33271 10.6312C2.22118 8.50208 3.45194 6.65 5.02497 5.075C6.598 3.5 8.44777 2.26042 10.5743 1.35625C12.7008 0.452083 15.0021 0 17.4782 0C19.6629 0 21.702 0.35 23.5955 1.05C25.489 1.75 27.1931 2.7125 28.7079 3.9375L26.829 5.81875C25.5472 4.79792 24.1199 4.01042 22.5468 3.45625C20.9738 2.90208 19.2842 2.625 17.4782 2.625C13.2543 2.625 9.72222 4.04688 6.88202 6.89062C4.04182 9.73438 2.62172 13.2708 2.62172 17.5C2.62172 21.7292 4.04182 25.2656 6.88202 28.1094C9.72222 30.9531 13.2543 32.375 17.4782 32.375C21.702 32.375 25.2341 30.9531 28.0743 28.1094C30.9145 25.2656 32.3346 21.7292 32.3346 17.5C32.3346 16.625 32.269 15.7719 32.138 14.9406C32.0069 14.1094 31.8102 13.3 31.5481 12.5125L33.5581 10.5C34.0241 11.5792 34.3737 12.7021 34.6067 13.8687C34.8398 15.0354 34.9563 16.2458 34.9563 17.5C34.9563 19.9792 34.5048 22.2833 33.6017 24.4125C32.6987 26.5417 31.4607 28.3937 29.8876 29.9688C28.3146 31.5437 26.4648 32.776 24.3383 33.6656C22.2118 34.5552 19.9251 35 17.4782 35ZM14.9001 25.4625L7.69039 18.2L9.65668 16.2312L14.9001 21.4812L32.99 3.36875L35 5.3375L14.9001 25.4625Z" fill="#5940C1"/>
</svg>
