<svg width="29" height="24" viewBox="0 0 29 24" fill="none" xmlns="http://www.w3.org/2000/svg">
<path fill-rule="evenodd" clip-rule="evenodd" d="M22.0613 23.735C22.4477 24.0086 22.9457 24.077 23.3897 23.909C23.8337 23.7398 24.1601 23.3606 24.2585 22.901C25.3013 18.0002 27.8309 5.59578 28.7801 1.13778C28.8521 0.801779 28.7321 0.452578 28.4681 0.228178C28.2041 0.00377795 27.8381 -0.0610223 27.5117 0.0601779C22.4801 1.92258 6.98449 7.73659 0.650878 10.0802C0.248878 10.229 -0.0127226 10.6154 0.000477425 11.039C0.0148774 11.4638 0.300478 11.8322 0.712078 11.9558C3.55248 12.8054 7.28089 13.9874 7.28089 13.9874C7.28089 13.9874 9.02329 19.2494 9.93169 21.9254C10.0457 22.2614 10.3085 22.5254 10.6553 22.6166C11.0009 22.7066 11.3705 22.6118 11.6285 22.3682C13.0877 20.9906 15.3437 18.8606 15.3437 18.8606C15.3437 18.8606 19.6301 22.0034 22.0613 23.735ZM8.84929 13.3226L10.8641 19.9682L11.3117 15.7598C11.3117 15.7598 19.0961 8.73859 23.5337 4.73658C23.6633 4.61898 23.6813 4.42218 23.5733 4.28418C23.4665 4.14618 23.2697 4.11378 23.1221 4.20738C17.9789 7.49179 8.84929 13.3226 8.84929 13.3226Z" fill="white"/>
</svg>
