<svg width="13" height="10" viewBox="0 0 13 10" fill="none" xmlns="http://www.w3.org/2000/svg">
<path fill-rule="evenodd" clip-rule="evenodd" d="M9.95799 9.88959C10.1324 10.0036 10.3572 10.0321 10.5576 9.96209C10.758 9.89159 10.9053 9.73359 10.9498 9.54209C11.4205 7.50008 12.5623 2.33158 12.9907 0.474075C13.0232 0.334074 12.969 0.188574 12.8499 0.0950743C12.7307 0.00157415 12.5655 -0.0254259 12.4182 0.0250741C10.147 0.801075 3.15264 3.22358 0.293792 4.20008C0.112338 4.26208 -0.0057427 4.42308 0.000215499 4.59958C0.00671535 4.77658 0.135629 4.93008 0.321417 4.98158C1.60351 5.33558 3.28643 5.82808 3.28643 5.82808C3.28643 5.82808 4.07291 8.02058 4.48295 9.13558C4.5344 9.27559 4.65303 9.38559 4.80956 9.42359C4.96556 9.46109 5.13239 9.42159 5.24885 9.32009C5.9075 8.74608 6.92581 7.85858 6.92581 7.85858C6.92581 7.85858 8.8606 9.16809 9.95799 9.88959ZM3.99437 5.55108L4.90381 8.32008L5.10585 6.56658C5.10585 6.56658 8.61956 3.64108 10.6226 1.97358C10.6811 1.92458 10.6892 1.84258 10.6405 1.78508C10.5923 1.72758 10.5034 1.71408 10.4368 1.75308C8.11528 3.12158 3.99437 5.55108 3.99437 5.55108Z" fill="black"/>
</svg>
